<?xml version="1.0" encoding="utf-8"?>
<!-- Generator: Adobe Illustrator 18.1.1, SVG Export Plug-In . SVG Version: 6.00 Build 0)  -->
<svg version="1.1" id="Layer_1" xmlns="http://www.w3.org/2000/svg" xmlns:xlink="http://www.w3.org/1999/xlink" x="0px" y="0px"
	 viewBox="-2.5 -2.5 19 19" enable-background="new -2.5 -2.5 19 19" xml:space="preserve">
<g id="Info">
	<path fill="#383938" d="M11.8,2C10.5,0.7,8.7,0,7,0S3.5,0.7,2.2,2c-2.7,2.7-2.7,7,0,9.6c1.3,1.3,3.1,2,4.8,2s3.5-0.7,4.8-2
		C14.5,8.9,14.5,4.6,11.8,2z M11.1,10.8C10,11.9,8.5,12.5,7,12.5s-3-0.6-4.1-1.7C0.7,8.6,0.7,5,2.9,2.7C4,1.7,5.5,1.1,7,1.1
		s3,0.6,4.1,1.7l0,0c1.1,1.1,1.7,2.5,1.7,4.1C12.7,8.3,12.1,9.8,11.1,10.8z"/>
	<circle fill="#383938" cx="7" cy="4.2" r="1"/>
	<rect x="6.1" y="5.9" fill="#383938" width="1.8" height="4.5"/>
</g>
</svg>
