<?xml version="1.0" encoding="utf-8"?>
<!-- Generator: Adobe Illustrator 18.1.1, SVG Export Plug-In . SVG Version: 6.00 Build 0)  -->
<svg version="1.1" id="Layer_1" xmlns="http://www.w3.org/2000/svg" xmlns:xlink="http://www.w3.org/1999/xlink" x="0px" y="0px"
	 viewBox="0 0 28.6 28.6" enable-background="new 0 0 28.6 28.6" xml:space="preserve">
<polygon fill="#010101" points="16.6,6.7 12,6.7 12,12 6.7,12 6.7,16.6 12,16.6 12,21.9 16.6,21.9 16.6,16.6 21.9,16.6 21.9,12 
	16.6,12 "/>
<path fill="#010101" d="M14.3,0C6.4,0,0,6.4,0,14.3c0,7.9,6.4,14.3,14.3,14.3s14.3-6.4,14.3-14.3C28.6,6.4,22.2,0,14.3,0z
	 M14.3,26.4C7.7,26.4,2.2,21,2.2,14.3c0-6.7,5.4-12.1,12.1-12.1s12.1,5.4,12.1,12.1C26.4,21,21,26.4,14.3,26.4z"/>
</svg>
